<?xml version="1.0" encoding="UTF-8"?>
<!DOCTYPE svg PUBLIC "-//W3C//DTD SVG 1.1//EN" "http://www.w3.org/Graphics/SVG/1.1/DTD/svg11.dtd">
<svg xmlns="http://www.w3.org/2000/svg" version="1.1" width="420px" height="420px" style="shape-rendering:geometricPrecision; text-rendering:geometricPrecision; image-rendering:optimizeQuality; fill-rule:evenodd; clip-rule:evenodd" xmlns:xlink="http://www.w3.org/1999/xlink">
<g><path style="opacity:1" fill="#eff0ef" d="M -0.5,-0.5 C 139.5,-0.5 279.5,-0.5 419.5,-0.5C 419.5,139.5 419.5,279.5 419.5,419.5C 279.5,419.5 139.5,419.5 -0.5,419.5C -0.5,279.5 -0.5,139.5 -0.5,-0.5 Z"/></g>
<g><path style="opacity:1" fill="#5bd086" d="M 34.5,34.5 C 151.5,34.5 268.5,34.5 385.5,34.5C 385.5,81.5 385.5,128.5 385.5,175.5C 362.167,175.5 338.833,175.5 315.5,175.5C 315.5,198.5 315.5,221.5 315.5,244.5C 338.833,244.5 362.167,244.5 385.5,244.5C 385.5,291.5 385.5,338.5 385.5,385.5C 268.5,385.5 151.5,385.5 34.5,385.5C 34.5,338.5 34.5,291.5 34.5,244.5C 57.8333,244.5 81.1667,244.5 104.5,244.5C 104.5,221.5 104.5,198.5 104.5,175.5C 81.1667,175.5 57.8333,175.5 34.5,175.5C 34.5,128.5 34.5,81.5 34.5,34.5 Z"/></g>
<g><path style="opacity:1" fill="#eff0ef" d="M 105.5,105.5 C 175.167,105.5 244.833,105.5 314.5,105.5C 314.5,128.5 314.5,151.5 314.5,174.5C 291.167,174.5 267.833,174.5 244.5,174.5C 244.5,197.833 244.5,221.167 244.5,244.5C 221.5,244.5 198.5,244.5 175.5,244.5C 175.5,221.167 175.5,197.833 175.5,174.5C 152.167,174.5 128.833,174.5 105.5,174.5C 105.5,151.5 105.5,128.5 105.5,105.5 Z"/></g>
<g><path style="opacity:1" fill="#eff0ef" d="M 105.5,245.5 C 128.5,245.5 151.5,245.5 174.5,245.5C 174.5,268.5 174.5,291.5 174.5,314.5C 151.5,314.5 128.5,314.5 105.5,314.5C 105.5,291.5 105.5,268.5 105.5,245.5 Z"/></g>
<g><path style="opacity:1" fill="#eff0ef" d="M 245.5,245.5 C 268.5,245.5 291.5,245.5 314.5,245.5C 314.5,268.5 314.5,291.5 314.5,314.5C 291.5,314.5 268.5,314.5 245.5,314.5C 245.5,291.5 245.5,268.5 245.5,245.5 Z"/></g>
</svg>
